<svg width="28" height="30" viewBox="0 0 28 30" fill="none" xmlns="http://www.w3.org/2000/svg">
<circle cx="14" cy="15" r="14" fill="#42507F"/>
<path d="M14.06 20.06C14.9 20.06 15.6333 19.8867 16.26 19.54C16.9 19.18 17.4 18.6533 17.76 17.96H20.5C19.98 19.2933 19.1467 20.32 18 21.04C16.8533 21.76 15.54 22.12 14.06 22.12C12.5 22.12 11.1133 21.7 9.9 20.86C8.68667 20.0067 7.84 18.8733 7.36 17.46H5.52V15.9H7C6.97333 15.5267 6.96 15.2333 6.96 15.02C6.96 14.8067 6.97333 14.5133 7 14.14H5.52V12.58H7.36C7.84 11.1667 8.68667 10.04 9.9 9.2C11.1133 8.34667 12.5 7.92 14.06 7.92C15.5267 7.92 16.8333 8.28667 17.98 9.02C19.14 9.74 19.98 10.7667 20.5 12.1H17.76C17.4 11.4067 16.9 10.8867 16.26 10.54C15.6333 10.18 14.9 10 14.06 10C13.0867 10 12.2267 10.2267 11.48 10.68C10.7467 11.1333 10.1867 11.7667 9.8 12.58H14.06V14.14H9.36C9.32 14.42 9.3 14.7133 9.3 15.02C9.3 15.3267 9.32 15.62 9.36 15.9H14.06V17.46H9.8C10.1867 18.2867 10.7467 18.9267 11.48 19.38C12.2267 19.8333 13.0867 20.06 14.06 20.06Z" fill="white"/>
</svg>
