<svg width="20" height="19" viewBox="0 0 20 19" fill="none" xmlns="http://www.w3.org/2000/svg">
<path d="M18.5017 8.4027H17.577C17.3011 7.71633 16.8999 7.10889 16.4046 6.60097L16.9971 4.00992H15.994C15.0724 4.00992 14.2574 4.47322 13.7057 5.18705C13.4675 5.14929 13.2324 5.10811 12.9847 5.10811H8.97242C6.54622 5.10811 4.52439 6.99564 4.05733 9.50089H2.70317C2.23924 9.50089 1.87249 9.03759 1.96653 8.51252C2.03549 8.12128 2.3709 7.8536 2.73452 7.8536H2.76586C2.8693 7.8536 2.95394 7.76094 2.95394 7.64769V6.96132C2.95394 6.84807 2.8693 6.7554 2.76586 6.7554C1.87249 6.7554 1.0763 7.4555 0.963453 8.42329C0.825529 9.59698 1.65934 10.5991 2.70317 10.5991H3.95702C3.95702 12.3905 4.75321 13.9657 5.96318 14.9678V17.7374C5.96318 18.0394 6.18887 18.2865 6.46472 18.2865H8.47088C8.74673 18.2865 8.97242 18.0394 8.97242 17.7374V16.0901H12.9847V17.7374C12.9847 18.0394 13.2104 18.2865 13.4863 18.2865H15.4924C15.7683 18.2865 15.994 18.0394 15.994 17.7374V14.9678C16.3639 14.6624 16.693 14.3021 16.9751 13.8937H18.5017C18.7775 13.8937 19.0032 13.6466 19.0032 13.3446V8.9518C19.0032 8.64979 18.7775 8.4027 18.5017 8.4027ZM14.4894 10.5991C14.2135 10.5991 13.9878 10.352 13.9878 10.05C13.9878 9.74799 14.2135 9.50089 14.4894 9.50089C14.7652 9.50089 14.9909 9.74799 14.9909 10.05C14.9909 10.352 14.7652 10.5991 14.4894 10.5991ZM8.97242 4.00992H12.9847C13.154 4.00992 13.3201 4.02364 13.4831 4.03737C13.4831 4.02708 13.4863 4.02021 13.4863 4.00992C13.4863 2.19103 12.1384 0.715332 10.477 0.715332C8.81569 0.715332 7.4678 2.19103 7.4678 4.00992C7.4678 4.08199 7.48347 4.15062 7.48661 4.22269C7.96307 4.08885 8.45834 4.00992 8.97242 4.00992Z" fill="#262626"/>
</svg>
